<?xml version="1.0" encoding="UTF-8"?>
<svg id="symbols" xmlns="http://www.w3.org/2000/svg" version="1.1" viewBox="0 0 28.4 28.4">
  <!-- Generator: Adobe Illustrator 29.1.0, SVG Export Plug-In . SVG Version: 2.1.0 Build 142)  -->
  <defs>
    <style>
      .st0 {
        fill: none;
        stroke: #1d1d1b;
        stroke-linecap: round;
        stroke-miterlimit: 10;
        stroke-width: .5px;
      }

      .st1 {
        fill: #1d1d1b;
      }
    </style>
  </defs>
  <polygon class="st0" points="13.8 6.4 14.4 10.5 16.2 6.8 15.6 10.9 18.5 8 16.6 11.6 20.2 9.7 17.3 12.6 21.4 12 17.7 13.8 21.8 14.4 17.7 15.1 21.4 16.9 17.3 16.2 20.2 19.1 16.6 17.2 18.5 20.9 15.6 18 16.2 22 14.4 18.4 13.8 22.4 13.1 18.4 11.3 22 12 18 9.1 20.9 10.9 17.2 7.3 19.1 10.2 16.2 6.2 16.9 9.8 15.1 5.8 14.4 9.8 13.8 6.2 12 10.2 12.6 7.3 9.7 10.9 11.6 9.1 8 12 10.9 11.3 6.8 13.1 10.5 13.8 6.4"/>
  <circle class="st1" cx="13.8" cy="14.4" r="3.2"/>
</svg>